<?xml version="1.0" encoding="iso-8859-1"?>
<!-- Generator: Adobe Illustrator 19.0.0, SVG Export Plug-In . SVG Version: 6.00 Build 0)  -->
<svg version="1.1" id="Capa_1" xmlns="http://www.w3.org/2000/svg" xmlns:xlink="http://www.w3.org/1999/xlink" x="0px" y="0px"
	 viewBox="0 0 78.188 78.188" style="enable-background:new 0 0 78.188 78.188;" xml:space="preserve">
<g>
	<path d="M75.006,12.39c-1.104-0.208-2.229,0.218-2.918,1.101c-0.084,0.106-0.17,0.21-0.266,0.306L66,19.619
		c-1.256,1.255-3.442,1.255-4.698,0l-2.731-2.731c-1.295-1.296-1.297-3.404,0-4.699l5.826-5.828c0.096-0.095,0.197-0.179,0.301-0.26
		c0.885-0.691,1.309-1.816,1.102-2.918s-1.012-1.997-2.086-2.319c-1.899-0.57-3.871-0.859-5.858-0.859
		c-5.429,0-10.534,2.114-14.375,5.953c-4.843,4.842-6.892,11.75-5.557,18.391L24.346,37.925c-1.319-0.265-2.663-0.398-4.014-0.398
		c-5.429,0-10.534,2.114-14.375,5.954c-5.296,5.297-7.249,13.05-5.096,20.232c0.322,1.073,1.216,1.879,2.318,2.087
		c1.101,0.209,2.228-0.217,2.919-1.102c0.086-0.109,0.176-0.217,0.265-0.306l5.825-5.822c1.255-1.254,3.442-1.255,4.698,0.001
		l2.731,2.731c1.295,1.296,1.295,3.403,0,4.698l-5.833,5.832c-0.093,0.095-0.194,0.176-0.296,0.256
		c-0.884,0.689-1.309,1.814-1.101,2.918c0.208,1.103,1.012,1.997,2.086,2.318c1.9,0.569,3.873,0.858,5.861,0.858l0,0
		c5.43,0,10.534-2.114,14.372-5.953c4.844-4.843,6.894-11.75,5.557-18.392l13.578-13.576c1.317,0.265,2.663,0.398,4.015,0.398
		c5.43,0,10.534-2.115,14.374-5.955c5.298-5.297,7.249-13.05,5.097-20.233C77.002,13.402,76.11,12.598,75.006,12.39z M67.989,30.467
		c-2.707,2.706-6.306,4.196-10.133,4.196c-1.388,0-2.763-0.199-4.088-0.592c-1.057-0.311-2.195-0.022-2.975,0.755L34.824,50.794
		c-0.778,0.777-1.068,1.92-0.755,2.975c1.497,5.052,0.116,10.501-3.605,14.221c-2.305,2.307-5.258,3.729-8.448,4.101l1.843-1.845
		c3.635-3.635,3.635-9.549,0-13.184l-2.731-2.73c-1.761-1.763-4.103-2.732-6.593-2.731c-2.49,0-4.832,0.97-6.591,2.729l-1.845,1.845
		c0.372-3.145,1.781-6.132,4.1-8.449c2.707-2.709,6.305-4.199,10.132-4.199c1.387,0,2.762,0.199,4.087,0.592
		c1.055,0.314,2.195,0.022,2.974-0.754l15.97-15.97c0.777-0.777,1.066-1.918,0.756-2.973c-1.496-5.053-0.115-10.502,3.604-14.222
		c2.307-2.305,5.26-3.729,8.449-4.099l-1.844,1.844c-3.635,3.633-3.635,9.548,0,13.186l2.732,2.73
		c1.762,1.761,4.102,2.731,6.592,2.731c2.49,0,4.832-0.97,6.592-2.73l1.844-1.843C71.715,25.162,70.306,28.148,67.989,30.467z"/>
</g>
<g>
</g>
<g>
</g>
<g>
</g>
<g>
</g>
<g>
</g>
<g>
</g>
<g>
</g>
<g>
</g>
<g>
</g>
<g>
</g>
<g>
</g>
<g>
</g>
<g>
</g>
<g>
</g>
<g>
</g>
</svg>
